<?xml version="1.0" encoding="utf-8"?>
<!-- Generator: Adobe Illustrator 26.2.1, SVG Export Plug-In . SVG Version: 6.00 Build 0)  -->
<svg version="1.1" id="Layer_1" xmlns="http://www.w3.org/2000/svg" xmlns:xlink="http://www.w3.org/1999/xlink" x="0px" y="0px"
	 viewBox="0 0 48 48" style="enable-background:new 0 0 48 48;" xml:space="preserve">
<style type="text/css">
	.st0{fill:#FFFFFF;}
</style>
<path class="st0" d="M23.6,16.7v-6.1h-6.1V9.1h6.1V3h1.5v6.1h6v1.5h-6v6.1H23.6z M14.9,42.2c-0.8,0-1.5-0.3-2-0.8
	c-0.5-0.5-0.8-1.2-0.8-2c0-0.8,0.3-1.4,0.8-2c0.6-0.5,1.2-0.8,2-0.8c0.8,0,1.5,0.3,2,0.8c0.6,0.6,0.8,1.2,0.8,2c0,0.8-0.3,1.4-0.8,2
	C16.3,42,15.6,42.2,14.9,42.2z M33.7,42.2c-0.8,0-1.5-0.3-2-0.8c-0.5-0.5-0.8-1.2-0.8-2c0-0.8,0.3-1.4,0.8-2c0.5-0.5,1.2-0.8,2-0.8
	c0.8,0,1.5,0.3,2,0.8c0.5,0.6,0.8,1.2,0.8,2c0,0.8-0.3,1.4-0.8,2C35.2,42,34.5,42.2,33.7,42.2z M14.9,32c-1.1,0-2-0.4-2.5-1.3
	c-0.5-0.9-0.5-1.8,0-2.8l3.2-5.7L8.1,6.6H4.5V5h4.6l8.2,17.3h14.2l7.4-13.2l1.3,0.7l-7,12.7c-0.3,0.5-0.6,0.8-1,1
	c-0.4,0.2-0.9,0.4-1.4,0.4H16.5L13.6,29c-0.2,0.3-0.2,0.6,0,1c0.2,0.4,0.5,0.5,0.9,0.5h22.1V32H14.9z"/>
</svg>
