<?xml version="1.0" encoding="utf-8"?>
<!-- Generator: Adobe Illustrator 26.2.1, SVG Export Plug-In . SVG Version: 6.00 Build 0)  -->
<svg version="1.1" id="Layer_1" xmlns="http://www.w3.org/2000/svg" xmlns:xlink="http://www.w3.org/1999/xlink" x="0px" y="0px"
	 viewBox="0 0 48 48" style="enable-background:new 0 0 48 48;" xml:space="preserve">
<style type="text/css">
	.st0{fill:#FFFFFF;}
</style>
<path class="st0" d="M6.8,31.1V7.6c0-0.4,0.2-0.8,0.5-1.1S7.9,6,8.3,6h23.9c0.4,0,0.8,0.2,1.1,0.5c0.3,0.3,0.5,0.7,0.5,1.1v15.7
	c0,0.4-0.2,0.8-0.5,1.1c-0.3,0.3-0.7,0.5-1.1,0.5H12.9L6.8,31.1z M14.4,32.5c-0.4,0-0.7-0.2-1.1-0.5c-0.3-0.3-0.5-0.7-0.5-1.1v-2.4
	H36l1.3,1.3V12h2.5c0.4,0,0.7,0.2,1,0.5s0.5,0.7,0.5,1.1v25l-6.2-6.1H14.4z M32.2,7.6H8.3v19.8l3.9-4h19.9V7.6z M8.3,7.6v15.8v4V7.6
	z"/>
</svg>
