<?xml version="1.0" encoding="utf-8"?>
<!-- Generator: Adobe Illustrator 26.2.1, SVG Export Plug-In . SVG Version: 6.00 Build 0)  -->
<svg version="1.1" id="Layer_1" xmlns="http://www.w3.org/2000/svg" xmlns:xlink="http://www.w3.org/1999/xlink" x="0px" y="0px"
	 viewBox="0 0 48 48" style="enable-background:new 0 0 48 48;" xml:space="preserve">
<style type="text/css">
	.st0{fill:#FFFFFF;}
</style>
<path class="st0" d="M12.1,35.5c1.9-1.3,3.8-2.3,5.7-3c1.9-0.7,4-1.1,6.2-1.1c2.3,0,4.3,0.4,6.2,1.1c1.9,0.7,3.8,1.7,5.7,3
	c1.4-1.6,2.5-3.3,3.3-5.2s1.2-4,1.2-6.2c0-4.6-1.6-8.5-4.8-11.7S28.6,7.6,24,7.6c-4.6,0-8.5,1.6-11.7,4.8S7.6,19.4,7.6,24
	c0,2.2,0.4,4.3,1.2,6.2S10.7,33.9,12.1,35.5z M24,24.8c-1.7,0-3.1-0.6-4.2-1.7c-1.1-1.1-1.7-2.5-1.7-4.2c0-1.7,0.6-3.1,1.7-4.2
	c1.2-1.2,2.6-1.7,4.2-1.7c1.7,0,3.1,0.6,4.2,1.7c1.1,1.2,1.7,2.6,1.7,4.2c0,1.7-0.6,3.1-1.7,4.2C27.1,24.2,25.7,24.8,24,24.8z
	 M24,42c-2.5,0-4.8-0.5-7-1.4c-2.2-0.9-4.1-2.2-5.7-3.8S8.3,33.2,7.4,31C6.5,28.9,6,26.5,6,24c0-2.5,0.5-4.8,1.4-7s2.2-4.1,3.8-5.7
	s3.5-2.9,5.7-3.8S21.5,6,24,6c2.5,0,4.8,0.5,7,1.4s4.1,2.2,5.7,3.8s2.9,3.5,3.8,5.7c0.9,2.2,1.4,4.5,1.4,7s-0.5,4.8-1.4,7
	c-0.9,2.2-2.2,4.1-3.8,5.7s-3.5,2.9-5.7,3.8C28.8,41.5,26.5,42,24,42z M24,40.5c1.9,0,3.8-0.3,5.6-1c1.9-0.6,3.5-1.6,5-2.9
	c-1.5-1.1-3.2-2-5-2.7c-1.8-0.7-3.7-1-5.7-1s-3.9,0.3-5.7,1c-1.8,0.7-3.5,1.6-4.9,2.7c1.5,1.3,3.2,2.3,5,2.9
	C20.2,40.1,22.1,40.5,24,40.5z M24,23.2c1.3,0,2.3-0.4,3.1-1.3c0.8-0.9,1.2-1.9,1.2-3.1c0-1.3-0.4-2.3-1.2-3.2
	c-0.8-0.8-1.9-1.2-3.1-1.2s-2.3,0.4-3.1,1.2c-0.8,0.8-1.2,1.9-1.2,3.2s0.4,2.3,1.2,3.1C21.7,22.8,22.7,23.2,24,23.2z M24,18.9
	L24,18.9L24,18.9L24,18.9L24,18.9L24,18.9L24,18.9L24,18.9L24,18.9z M24,36.7L24,36.7L24,36.7L24,36.7L24,36.7L24,36.7L24,36.7
	L24,36.7L24,36.7z"/>
</svg>
