<?xml version="1.0" encoding="utf-8"?>
<!-- Generator: Adobe Illustrator 26.2.1, SVG Export Plug-In . SVG Version: 6.00 Build 0)  -->
<svg version="1.1" id="Layer_1" xmlns="http://www.w3.org/2000/svg" xmlns:xlink="http://www.w3.org/1999/xlink" x="0px" y="0px"
	 viewBox="0 0 48 48" style="enable-background:new 0 0 48 48;" xml:space="preserve">
<style type="text/css">
	.st0{fill:#FFFFFF;}
</style>
<path class="st0" d="M24,34.3c3.7-2.9,6.5-5.7,8.4-8.4c1.9-2.7,2.8-5.3,2.8-7.8c0-2.1-0.4-3.9-1.2-5.3s-1.7-2.6-2.8-3.6
	c-1.1-0.9-2.4-1.6-3.6-2c-1.3-0.4-2.5-0.6-3.6-0.6c-1.1,0-2.3,0.2-3.6,0.6c-1.3,0.4-2.5,1.1-3.7,2c-1.1,0.9-2.1,2.1-2.9,3.6
	c-0.8,1.5-1.1,3.2-1.1,5.3c0,2.5,0.9,5.1,2.9,7.8S20.3,31.4,24,34.3z M24,36.2c-4.3-3.3-7.5-6.4-9.6-9.4s-3.1-5.9-3.1-8.8
	c0-2.1,0.4-4,1.1-5.6c0.8-1.6,1.8-3,3-4.1s2.6-1.9,4.1-2.5S22.5,5,24,5s3,0.3,4.5,0.8s2.9,1.4,4.1,2.5s2.2,2.5,3,4.1
	s1.2,3.5,1.2,5.7c0,2.8-1,5.8-3.2,8.8C31.5,29.9,28.3,33,24,36.2z M24,20.5c0.8,0,1.5-0.3,2-0.8s0.8-1.2,0.8-2s-0.3-1.4-0.8-1.9
	c-0.5-0.5-1.2-0.8-2-0.8s-1.4,0.3-2,0.8c-0.5,0.5-0.8,1.2-0.8,1.9s0.3,1.4,0.8,2C22.6,20.3,23.2,20.5,24,20.5z M11.2,43v-1.5h25.5
	V43H11.2z M24,18L24,18L24,18L24,18L24,18L24,18L24,18L24,18L24,18L24,18L24,18L24,18L24,18z"/>
</svg>
