<?xml version="1.0" encoding="utf-8"?>
<!-- Generator: Adobe Illustrator 26.2.1, SVG Export Plug-In . SVG Version: 6.00 Build 0)  -->
<svg version="1.1" id="Layer_1" xmlns="http://www.w3.org/2000/svg" xmlns:xlink="http://www.w3.org/1999/xlink" x="0px" y="0px"
	 viewBox="0 0 48 48" style="enable-background:new 0 0 48 48;" xml:space="preserve">
<style type="text/css">
	.st0{fill:#FFFFFF;}
</style>
<path class="st0" d="M41,21.8v16.5c0,0.8-0.3,1.4-0.8,2S39,41,38.2,41H9.7c-0.8,0-1.4-0.3-1.9-0.8s-0.8-1.2-0.8-2V21.7
	C6,21,5.4,20.2,5.1,19.1c-0.3-1-0.3-2.1,0-3.2l2-6.4C7.4,8.7,7.8,8,8.4,7.6C9,7.2,9.7,7,10.5,7h26.8c0.8,0,1.6,0.2,2.2,0.6
	c0.6,0.4,1.1,1,1.3,1.8l2.1,6.5c0.3,1.1,0.3,2.2,0,3.2C42.5,20.2,41.9,21.1,41,21.8z M28.4,21.2c1.3,0,2.4-0.4,3.1-1.1
	c0.7-0.8,1-1.5,0.9-2.3L31,8.6h-6.2v8.8c0,1,0.4,1.9,1.1,2.7C26.5,20.9,27.4,21.2,28.4,21.2z M19.2,21.2c1.1,0,2.1-0.4,2.9-1.1
	s1.1-1.7,1.1-2.8V8.6H17L15.6,18c-0.1,0.7,0.2,1.4,0.9,2.1C17.1,20.9,18.1,21.2,19.2,21.2z M10.3,21.2c0.9,0,1.8-0.3,2.4-1
	s1.1-1.5,1.2-2.4l1.4-9.3h-5.1c-0.4,0-0.8,0.1-1.1,0.3C8.9,9,8.8,9.3,8.6,9.7l-2,6.6c-0.4,1.2-0.2,2.3,0.4,3.4
	C7.8,20.7,8.9,21.2,10.3,21.2z M37.7,21.2c1.3,0,2.3-0.5,3.1-1.5s1-2.1,0.5-3.5l-2-6.7C39.2,9.2,39,9,38.7,8.8
	c-0.3-0.2-0.6-0.2-1.1-0.2h-5l1.3,9.3c0.2,0.9,0.6,1.7,1.3,2.4C35.9,20.9,36.7,21.2,37.7,21.2z M9.7,39.5h28.5
	c0.3,0,0.6-0.1,0.8-0.4s0.4-0.5,0.4-0.8V22.5c-0.2,0.1-0.5,0.1-0.8,0.2c-0.3,0-0.7,0-1,0c-0.8,0-1.6-0.2-2.3-0.5
	c-0.7-0.4-1.4-1-2.1-1.8c-0.5,0.7-1.1,1.2-1.9,1.6c-0.8,0.4-1.7,0.6-2.9,0.6c-0.8,0-1.6-0.2-2.3-0.5c-0.7-0.4-1.4-0.9-2.1-1.7
	c-0.7,0.7-1.4,1.3-2.2,1.7c-0.8,0.4-1.6,0.5-2.4,0.5c-0.9,0-1.8-0.2-2.5-0.5c-0.8-0.3-1.5-0.9-2.1-1.8c-1,1-1.9,1.6-2.7,1.9
	c-0.8,0.3-1.4,0.4-1.8,0.4c-0.3,0-0.7,0-1,0c-0.3,0-0.6-0.1-0.8-0.2v15.7c0,0.3,0.1,0.6,0.4,0.8C9.1,39.3,9.4,39.5,9.7,39.5z
	 M38.2,39.5H9.7l0,0l0,0c0,0,0.1,0,0.2,0s0.2,0,0.4,0c0.1,0,0.8,0,2.1,0s2.1,0,2.4,0c0.1,0,0.3,0,0.8,0s0.9,0,1.5,0c0.5,0,1,0,1.5,0
	s0.7,0,0.9,0c0.1,0,0.3,0,0.8,0c0.5,0,1,0,1.5,0c0.6,0,1.1,0,1.5,0c0.5,0,0.7,0,0.8,0c0.2,0,0.9,0,2.2,0c1.3,0,2,0,2.2,0
	c0.1,0,0.4,0,0.9,0s1,0,1.6,0s1.1,0,1.5,0s0.7,0,0.8,0c0.2,0,1,0,2.2,0s2,0,2.2,0c0.1,0,0.3,0,0.4,0S38.3,39.5,38.2,39.5L38.2,39.5
	L38.2,39.5z"/>
</svg>
