<?xml version="1.0" encoding="utf-8"?>
<!-- Generator: Adobe Illustrator 26.2.1, SVG Export Plug-In . SVG Version: 6.00 Build 0)  -->
<svg version="1.1" id="Layer_1" xmlns="http://www.w3.org/2000/svg" xmlns:xlink="http://www.w3.org/1999/xlink" x="0px" y="0px"
	 viewBox="0 0 48 48" style="enable-background:new 0 0 48 48;" xml:space="preserve">
<style type="text/css">
	.st0{fill:#FFFFFF;}
</style>
<path class="st0" d="M24,4.2c2.1,0,4.2,0.3,6.2,0.8s4,1.3,5.8,2.2c0.2,0.1,0.3,0.2,0.4,0.3c0,0.1,0,0.3,0,0.4
	c-0.1,0.1-0.2,0.2-0.3,0.2c-0.1,0.1-0.3,0.1-0.4,0c-1.8-1-3.6-1.7-5.6-2.2s-4-0.7-6-0.7c-2,0-4,0.3-6,0.8s-3.8,1.2-5.6,2.2
	c-0.1,0-0.2,0-0.3,0S11.9,8.1,11.9,8c0-0.1-0.1-0.2-0.1-0.3s0-0.3,0.1-0.3c1.9-1,3.8-1.8,5.9-2.3S21.9,4.2,24,4.2z M24,9.2
	c3.5,0,6.9,0.8,10,2.3c3.2,1.5,5.8,3.7,7.9,6.6c0.1,0.2,0.1,0.3,0.1,0.4c0,0.1-0.1,0.2-0.2,0.3c-0.1,0.1-0.2,0.1-0.4,0.1
	c-0.2,0-0.3-0.1-0.4-0.2c-2-2.7-4.4-4.8-7.4-6.2s-6.2-2.1-9.5-2.1c-3.3,0-6.4,0.7-9.4,2.1s-5.4,3.5-7.3,6.2
	c-0.2,0.2-0.3,0.2-0.4,0.2c-0.1,0-0.3,0-0.4-0.1c-0.1-0.1-0.2-0.2-0.2-0.3c0-0.1,0-0.2,0.1-0.3c2.1-2.8,4.6-5,7.8-6.6
	S20.5,9.2,24,9.2z M24,18.9c3,0,5.6,1,7.8,3c2.2,2,3.2,4.5,3.2,7.4c0,0.2,0,0.3-0.1,0.4c-0.1,0.1-0.2,0.1-0.4,0.1
	c-0.1,0-0.3,0-0.4-0.1c-0.1-0.1-0.2-0.2-0.2-0.4c0-2.6-1-4.9-3-6.6c-2-1.8-4.3-2.7-7-2.7s-5,0.9-7,2.7c-2,1.8-2.9,4-2.9,6.6
	c0,2.8,0.5,5.2,1.5,7.2s2.4,3.9,4.3,5.9c0.1,0.2,0.2,0.3,0.1,0.5c0,0.1-0.1,0.3-0.1,0.3c-0.1,0.1-0.2,0.2-0.4,0.2
	c-0.1,0-0.3,0-0.4-0.2c-1.9-2-3.3-4.1-4.4-6.3c-1.1-2.2-1.6-4.7-1.6-7.6c0-2.9,1.1-5.4,3.2-7.4S21,18.9,24,18.9z M24,28.8
	c0.2,0,0.3,0.1,0.4,0.2c0.1,0.1,0.1,0.2,0.1,0.4c0,2.7,1,4.9,2.9,6.6c1.9,1.7,4.2,2.5,6.7,2.5c0.4,0,0.7,0,1.1,0
	c0.4,0,0.8-0.1,1.1-0.2c0.1,0,0.2,0,0.3,0.1c0.1,0.1,0.2,0.2,0.2,0.3c0.1,0.2,0.1,0.3,0,0.4c-0.1,0.1-0.2,0.2-0.4,0.2
	c-0.4,0.1-0.8,0.2-1.2,0.2s-0.8,0.1-1.2,0.1c-2.9,0-5.4-1-7.5-2.9c-2.1-1.9-3.2-4.4-3.2-7.4c0-0.1,0-0.3,0.1-0.4
	C23.6,28.9,23.8,28.8,24,28.8z M24,23.9c1.6,0,2.9,0.5,4.1,1.6c1.1,1.1,1.7,2.4,1.7,3.9c0,1.3,0.5,2.3,1.4,3.1
	c0.9,0.8,2,1.2,3.3,1.2c1.3,0,2.4-0.4,3.3-1.2c0.9-0.8,1.4-1.9,1.4-3.1c0-4-1.5-7.4-4.5-10.1c-3-2.7-6.5-4.1-10.7-4.1
	c-4.2,0-7.7,1.4-10.7,4.1s-4.5,6.1-4.5,10.1c0,0.8,0.1,1.9,0.3,3.1c0.2,1.2,0.6,2.7,1.1,4.3c0.1,0.2,0.1,0.3,0,0.4s-0.1,0.2-0.3,0.2
	c-0.2,0.1-0.3,0.1-0.4,0s-0.2-0.1-0.3-0.3c-0.5-1.4-0.8-2.7-1.1-4c-0.3-1.3-0.4-2.6-0.4-3.9c0-4.3,1.6-7.9,4.8-10.9s7-4.5,11.4-4.5
	c4.5,0,8.3,1.5,11.5,4.4s4.8,6.6,4.8,11c0,1.5-0.6,2.8-1.7,3.9c-1.1,1.1-2.5,1.6-4,1.6c-1.6,0-3-0.5-4.1-1.6
	c-1.1-1.1-1.7-2.4-1.7-3.9c0-1.2-0.5-2.3-1.4-3.1c-0.9-0.9-2-1.3-3.3-1.3c-1.3,0-2.4,0.4-3.3,1.3c-0.9,0.8-1.4,1.9-1.4,3.1
	c0,3.4,1,6.3,3.1,8.6s4.6,3.9,7.7,4.8c0.2,0,0.3,0.1,0.4,0.2c0,0.1,0.1,0.3,0,0.4c0,0.2-0.1,0.3-0.2,0.4c-0.1,0.1-0.3,0.1-0.5,0
	c-3.3-0.9-6.1-2.6-8.3-5.1s-3.3-5.6-3.3-9.3c0-1.6,0.6-2.9,1.7-3.9C21.1,24.4,22.4,23.9,24,23.9z"/>
</svg>
