<?xml version="1.0" encoding="utf-8"?>
<!-- Generator: Adobe Illustrator 26.2.1, SVG Export Plug-In . SVG Version: 6.00 Build 0)  -->
<svg version="1.1" id="Layer_1" xmlns="http://www.w3.org/2000/svg" xmlns:xlink="http://www.w3.org/1999/xlink" x="0px" y="0px"
	 viewBox="0 0 48 48" style="enable-background:new 0 0 48 48;" xml:space="preserve">
<style type="text/css">
	.st0{fill:#FFFFFF;}
</style>
<path class="st0" d="M15.8,20.3L24,6.9l8.2,13.4H15.8z M35.2,42.5c-2.1,0-3.8-0.7-5.2-2.1c-1.4-1.4-2.1-3.1-2.1-5.2
	c0-2.1,0.7-3.8,2.1-5.2c1.4-1.4,3.1-2.1,5.2-2.1c2.1,0,3.8,0.7,5.2,2.1c1.4,1.4,2.1,3.1,2.1,5.2c0,2.1-0.7,3.8-2.1,5.2
	C39,41.8,37.2,42.5,35.2,42.5z M7.6,41.3V28.8h12.6v12.5H7.6z M35.2,40.9c1.6,0,3-0.6,4.1-1.7c1.1-1.1,1.7-2.5,1.7-4.1
	c0-1.6-0.6-3-1.7-4.1c-1.1-1.1-2.5-1.7-4.1-1.7c-1.6,0-3,0.6-4.1,1.7s-1.7,2.5-1.7,4.1c0,1.6,0.6,3,1.7,4.1
	C32.1,40.3,33.5,40.9,35.2,40.9z M9.1,39.8h9.4v-9.5H9.1V39.8z M18.5,18.8h11L24,9.9L18.5,18.8z M35.2,35.2L35.2,35.2L35.2,35.2
	L35.2,35.2L35.2,35.2L35.2,35.2L35.2,35.2L35.2,35.2L35.2,35.2z"/>
</svg>
